<svg width="113" height="114" viewBox="0 0 113 114" fill="none" xmlns="http://www.w3.org/2000/svg">
<rect y="0.5" width="112.5" height="113.5" rx="17" fill="white"/>
<path d="M32.0474 88.75V25.3624H58.4795C63.2253 25.3624 67.1974 26.033 70.3956 27.3743C73.6145 28.7155 76.0287 30.5932 77.6382 33.0073C79.2682 35.4215 80.0833 38.2174 80.0833 41.395C80.0833 43.8092 79.5778 45.9655 78.5667 47.8638C77.5556 49.7415 76.1628 51.2993 74.3883 52.5374C72.6138 53.7754 70.5607 54.642 68.2291 55.1373V55.7563C70.7877 55.8801 73.1503 56.5713 75.3168 57.83C77.504 59.0887 79.2579 60.8426 80.5785 63.0917C81.8991 65.3201 82.5594 67.9613 82.5594 71.0151C82.5594 74.4197 81.6927 77.4632 79.9595 80.1456C78.2262 82.8074 75.7192 84.9121 72.4384 86.4596C69.1576 87.9865 65.1752 88.75 60.4913 88.75H32.0474ZM47.3681 76.4006H56.8391C60.1612 76.4006 62.6063 75.7712 64.1745 74.5126C65.7633 73.2539 66.5577 71.5 66.5577 69.2509C66.5577 67.6208 66.176 66.2177 65.4125 65.0416C64.6491 63.8448 63.5658 62.9266 62.1627 62.2869C60.7596 61.6266 59.0779 61.2965 57.1177 61.2965H47.3681V76.4006ZM47.3681 51.4231H55.8487C57.52 51.4231 59.0057 51.1446 60.3056 50.5875C61.6056 50.0304 62.6166 49.2256 63.3388 48.1733C64.0816 47.121 64.453 45.852 64.453 44.3663C64.453 42.241 63.6999 40.5697 62.1936 39.3523C60.6873 38.1349 58.6549 37.5262 56.0963 37.5262H47.3681V51.4231Z" fill="#27153E"/>
<path d="M32.0474 88.75V25.3624H58.4795C63.2253 25.3624 67.1974 26.033 70.3956 27.3743C73.6145 28.7155 76.0287 30.5932 77.6382 33.0073C79.2682 35.4215 80.0833 38.2174 80.0833 41.395C80.0833 43.8092 79.5778 45.9655 78.5667 47.8638C77.5556 49.7415 76.1628 51.2993 74.3883 52.5374C72.6138 53.7754 70.5607 54.642 68.2291 55.1373V55.7563C70.7877 55.8801 73.1503 56.5713 75.3168 57.83C77.504 59.0887 79.2579 60.8426 80.5785 63.0917C81.8991 65.3201 82.5594 67.9613 82.5594 71.0151C82.5594 74.4197 81.6927 77.4632 79.9595 80.1456C78.2262 82.8074 75.7192 84.9121 72.4384 86.4596C69.1576 87.9865 65.1752 88.75 60.4913 88.75H32.0474ZM47.3681 76.4006H56.8391C60.1612 76.4006 62.6063 75.7712 64.1745 74.5126C65.7633 73.2539 66.5577 71.5 66.5577 69.2509C66.5577 67.6208 66.176 66.2177 65.4125 65.0416C64.6491 63.8448 63.5658 62.9266 62.1627 62.2869C60.7596 61.6266 59.0779 61.2965 57.1177 61.2965H47.3681V76.4006ZM47.3681 51.4231H55.8487C57.52 51.4231 59.0057 51.1446 60.3056 50.5875C61.6056 50.0304 62.6166 49.2256 63.3388 48.1733C64.0816 47.121 64.453 45.852 64.453 44.3663C64.453 42.241 63.6999 40.5697 62.1936 39.3523C60.6873 38.1349 58.6549 37.5262 56.0963 37.5262H47.3681V51.4231Z" fill="url(#paint0_linear_7883_18619)"/>
<defs>
<linearGradient id="paint0_linear_7883_18619" x1="28.093" y1="4.75" x2="52.8779" y2="4.75" gradientUnits="userSpaceOnUse">
<stop stop-color="#2352CA"/>
<stop offset="1" stop-color="#9F23CA"/>
</linearGradient>
</defs>
</svg>
